<?xml version="1.0" standalone="no"?>
<!DOCTYPE svg PUBLIC "-//W3C//DTD SVG 20010904//EN"
 "http://www.w3.org/TR/2001/REC-SVG-20010904/DTD/svg10.dtd">
<svg version="1.0" xmlns="http://www.w3.org/2000/svg"
 width="1280.000000pt" height="1066.000000pt" viewBox="0 0 1280.000000 1066.000000"
 preserveAspectRatio="xMidYMid meet">
<metadata>
Created by potrace 1.15, written by Peter Selinger 2001-2017
</metadata>
<g transform="translate(0.000000,1066.000000) scale(0.100000,-0.100000)"
fill="#000000" stroke="none">
<path d="M4860 10651 c-86 -11 -139 -24 -246 -61 -335 -118 -556 -351 -630
-667 -22 -95 -14 -320 15 -417 42 -141 156 -298 284 -393 58 -42 59 -43 33
-52 -161 -62 -482 -204 -691 -307 -767 -376 -1226 -768 -1470 -1254 -113 -226
-149 -383 -149 -650 0 -96 5 -194 11 -217 8 -32 8 -43 -1 -43 -6 0 -115 30
-241 66 -573 164 -865 211 -1155 185 -360 -33 -561 -174 -611 -429 -33 -171
38 -386 208 -625 78 -111 322 -353 463 -460 63 -48 169 -130 235 -181 154
-120 408 -300 557 -396 64 -41 116 -78 115 -81 -1 -3 -45 -41 -97 -85 -181
-150 -390 -371 -547 -579 -650 -862 -882 -1959 -592 -2803 267 -777 923 -1230
1734 -1199 530 21 1064 238 1560 633 145 116 407 379 526 529 444 556 711
1188 779 1845 13 124 13 431 0 544 -6 49 -9 90 -8 91 2 1 62 -12 133 -30 197
-50 305 -66 478 -72 l157 -6 0 -66 c0 -183 -38 -505 -110 -927 -30 -177 -48
-304 -44 -323 17 -82 94 -105 175 -51 51 33 108 109 208 275 190 316 345 686
477 1138 l57 196 71 48 c157 107 327 260 473 426 197 224 347 442 584 849 274
471 343 584 440 728 271 402 598 730 857 860 258 129 473 98 696 -102 58 -52
187 -203 230 -269 l17 -27 -63 -38 c-458 -273 -887 -714 -1177 -1208 -338
-575 -498 -1240 -436 -1816 78 -744 472 -1299 1090 -1540 107 -41 292 -86 416
-101 149 -17 464 -7 605 20 984 185 1893 988 2307 2036 361 915 262 1869 -255
2441 -389 432 -953 621 -1574 529 -59 -9 -112 -14 -118 -12 -7 3 -18 25 -25
48 -26 87 -105 277 -168 404 -187 374 -649 880 -1098 1201 -235 169 -427 281
-901 528 -247 128 -287 146 -329 146 -90 0 -157 -68 -157 -160 0 -31 7 -60 18
-78 11 -16 205 -208 432 -427 243 -234 420 -412 431 -434 24 -47 33 -88 26
-112 -12 -36 -62 -22 -244 69 -251 126 -441 192 -671 234 -140 26 -450 31
-570 10 -434 -77 -788 -276 -1150 -648 -247 -254 -455 -538 -665 -909 -38 -66
-69 -121 -70 -122 0 -1 -95 22 -211 52 -350 90 -547 157 -760 259 -174 84
-262 143 -365 245 -115 115 -151 187 -157 317 -11 237 132 447 508 749 725
582 1590 857 2533 806 117 -7 244 -16 282 -22 219 -31 294 -22 357 41 42 42
48 76 24 133 -19 47 -98 115 -173 148 -110 51 -705 141 -1147 175 -116 9 -212
18 -214 19 -2 2 4 29 13 61 23 88 30 211 16 301 -26 162 -115 322 -266 481
-46 48 -100 117 -121 152 -58 100 -201 237 -302 289 -127 65 -245 92 -432 96
-85 2 -184 0 -220 -4z m4422 -2751 c329 -254 728 -708 867 -987 50 -100 161
-377 161 -401 0 -4 -37 -20 -83 -37 -45 -16 -85 -31 -89 -33 -4 -2 -14 11 -23
28 -29 56 -213 277 -291 349 -143 132 -290 214 -451 252 -123 30 -308 23 -437
-15 -298 -89 -586 -311 -908 -699 -201 -242 -349 -466 -652 -982 -214 -363
-395 -643 -517 -796 -84 -105 -259 -293 -266 -285 -2 2 8 68 23 147 32 175 44
505 25 667 -62 504 -305 854 -755 1085 l-85 44 66 114 c91 159 254 402 365
544 123 158 374 411 511 512 196 146 394 240 611 291 98 23 132 26 286 26 143
0 194 -4 280 -23 206 -44 405 -120 610 -233 130 -71 199 -92 305 -92 77 -1 98
3 146 26 79 36 133 89 171 166 29 57 33 79 36 157 4 103 -11 168 -58 253 l-29
53 29 -18 c15 -10 84 -61 152 -113z m-8142 -1419 c137 -29 234 -54 700 -184
107 -30 242 -65 300 -78 99 -21 109 -26 175 -79 179 -145 393 -253 701 -353
258 -85 734 -202 1004 -248 501 -85 843 -187 1001 -297 396 -276 615 -659 679
-1182 5 -46 10 -111 10 -144 l0 -59 -142 6 c-81 3 -190 15 -250 27 -171 33
-448 119 -466 144 -4 6 -23 52 -41 101 -128 348 -376 664 -671 858 -283 185
-679 292 -1015 273 l-109 -6 -41 32 c-22 18 -103 87 -180 153 -257 222 -393
311 -553 366 -87 29 -109 32 -207 32 -91 0 -124 -4 -190 -26 -238 -78 -364
-242 -353 -460 5 -102 33 -176 99 -263 l48 -64 -107 72 c-303 203 -684 500
-837 653 -207 207 -354 429 -370 560 -9 72 2 96 59 130 95 56 222 75 446 70
133 -4 193 -10 310 -34z m10608 -426 c458 -87 781 -432 892 -950 27 -128 38
-406 21 -555 -75 -660 -467 -1308 -1010 -1672 -567 -379 -1194 -381 -1596 -5
-235 219 -364 507 -397 890 -42 485 140 1066 472 1504 l49 64 10 -38 c62 -239
149 -635 286 -1313 180 -890 174 -868 249 -904 80 -38 177 -7 217 69 l22 42
-12 594 c-19 959 -50 1445 -125 1940 l-23 148 56 30 c140 74 362 146 506 164
84 11 309 6 383 -8z m-1235 -537 c35 -279 32 -292 -19 -90 -44 176 -46 184
-29 202 10 11 21 20 25 20 3 0 14 -60 23 -132z m-8364 -19 c77 -26 206 -110
333 -217 53 -45 99 -86 102 -91 3 -4 -39 -23 -94 -40 -55 -17 -147 -52 -206
-76 l-106 -45 -145 107 c-208 153 -246 206 -208 287 13 27 32 43 78 66 75 37
153 40 246 9z m1846 -864 c141 -41 275 -114 394 -214 55 -46 194 -202 186
-209 -2 -2 -131 78 -287 179 -467 301 -455 291 -293 244z m-310 -238 c441
-293 1022 -664 1073 -684 38 -14 40 -17 52 -82 18 -99 24 -421 10 -542 -32
-284 -106 -531 -240 -804 -274 -560 -737 -991 -1238 -1154 -176 -58 -233 -66
-437 -65 -162 1 -190 3 -280 27 -365 98 -650 379 -780 770 -59 176 -76 281
-82 493 -8 285 23 501 112 769 121 368 343 736 584 969 l50 50 258 -127 c390
-190 599 -280 654 -280 119 -1 201 140 139 240 -11 19 -142 124 -326 262
l-306 230 84 42 c83 42 279 118 308 118 9 1 173 -104 365 -232z"/>
</g>
</svg>
