<?xml version="1.0" standalone="no"?>
<!DOCTYPE svg PUBLIC "-//W3C//DTD SVG 20010904//EN"
 "http://www.w3.org/TR/2001/REC-SVG-20010904/DTD/svg10.dtd">
<svg version="1.0" xmlns="http://www.w3.org/2000/svg"
 width="300.000000pt" height="231.000000pt" viewBox="0 0 300.000000 231.000000"
 preserveAspectRatio="xMidYMid meet">
<metadata>
Created by potrace 1.10, written by Peter Selinger 2001-2011
</metadata>
<g transform="translate(0.000000,231.000000) scale(0.100000,-0.100000)"
fill="#000000" stroke="none">
<path d="M1195 2135 c-16 -15 -25 -36 -25 -55 l0 -30 -180 0 c-141 0 -180 -3
-180 -13 0 -18 335 -11 365 8 11 7 41 12 67 11 44 -2 46 -1 51 28 3 22 -2 36
-19 53 -30 29 -49 29 -79 -2z m61 -50 c-3 -9 -14 -15 -23 -13 -22 4 -30 38
-11 49 18 11 43 -15 34 -36z"/>
<path d="M2232 2099 c2 -12 12 -25 24 -29 17 -7 20 -4 18 13 -1 12 -3 25 -3
30 -1 4 -10 7 -22 7 -15 0 -20 -5 -17 -21z"/>
<path d="M2732 2099 c2 -12 12 -25 24 -29 17 -7 20 -4 18 13 -1 12 -3 25 -3
30 -1 4 -10 7 -22 7 -15 0 -20 -5 -17 -21z"/>
<path d="M1300 2040 c0 -6 43 -10 113 -11 61 0 143 -2 180 -4 49 -3 67 0 64 8
-5 16 -357 23 -357 7z"/>
<path d="M627 1993 c-4 -3 -7 -74 -7 -158 l0 -151 -45 -22 c-58 -28 -122 -86
-146 -133 -10 -21 -19 -40 -19 -42 0 -3 28 -7 63 -11 34 -3 78 -8 98 -12 25
-4 39 -1 48 10 12 14 10 16 -12 16 -14 0 -28 -6 -31 -12 -4 -7 -4 5 -2 27 l5
40 -15 -28 c-13 -24 -17 -26 -37 -15 -12 6 -23 11 -24 10 -11 -8 -33 1 -33 12
0 8 7 21 15 30 8 8 15 20 15 26 0 6 4 9 9 6 5 -3 14 1 21 9 14 17 120 76 120
67 0 -3 -10 -17 -22 -31 -13 -14 -4 -9 20 12 23 20 52 37 65 38 12 0 30 2 40
4 42 8 147 -127 147 -190 0 -16 -7 -20 -37 -21 -21 0 -65 -2 -98 -4 -33 -2
-70 0 -82 4 -15 5 -23 4 -23 -2 0 -6 16 -17 36 -24 l36 -13 -4 -90 c-3 -50 -1
-99 3 -110 6 -16 8 -14 8 13 1 34 24 53 43 34 14 -14 0 -52 -20 -53 -12 0 -11
-3 6 -9 12 -5 22 -14 22 -20 0 -5 16 -10 35 -10 48 0 67 33 35 64 l-22 21 6
-21 c8 -26 -30 -66 -43 -45 -4 7 -6 23 -3 37 5 29 -13 54 -39 54 -17 0 -19 8
-19 69 l0 68 44 13 c24 6 61 11 82 9 22 -2 59 3 84 10 24 7 59 11 77 8 41 -7
42 5 5 64 -49 77 -116 122 -227 154 -33 10 -63 23 -67 29 -6 8 -8 8 -8 0 0 -7
-11 -15 -24 -18 -13 -3 -31 -9 -40 -12 -15 -6 -16 7 -14 117 l3 124 117 3 117
3 3 -28 3 -28 137 -3 c131 -2 139 -4 162 -27 32 -32 51 -31 80 0 23 24 27 25
160 25 144 0 158 5 141 48 -6 15 -8 14 -16 -5 -8 -22 -13 -23 -143 -23 -125 0
-136 -2 -146 -20 -14 -26 -55 -26 -74 1 -13 20 -23 21 -144 20 -128 -2 -129
-2 -146 23 -9 14 -16 37 -16 51 l0 25 -128 0 c-71 0 -132 -3 -135 -7z m328
-411 c19 -19 35 -38 35 -43 0 -6 5 -7 10 -4 6 3 10 -2 10 -12 0 -11 -8 -19
-17 -20 -10 -1 -33 -4 -50 -7 -24 -4 -33 -1 -33 9 0 7 -15 43 -34 78 l-34 65
39 -16 c21 -10 54 -32 74 -50z"/>
<path d="M910 1970 l0 -30 325 0 325 0 0 30 0 30 -325 0 -325 0 0 -30z"/>
<path d="M1578 1970 l-5 -30 84 0 83 0 0 -184 c0 -101 3 -191 6 -200 5 -12 -1
-16 -24 -16 l-30 0 16 -50 16 -50 85 0 c60 1 92 5 105 15 22 16 56 20 56 6 0
-5 -7 -25 -15 -44 -16 -39 -40 -57 -76 -57 -22 0 -22 0 -3 21 19 22 19 22 -3
10 -12 -6 -31 -11 -42 -11 -12 0 -21 -7 -21 -15 0 -17 6 -17 181 -15 l117 1
70 -133 c51 -97 67 -136 60 -145 -15 -19 -826 -19 -834 0 -2 7 27 71 65 142
l69 130 93 3 c91 3 108 9 109 40 0 14 -109 16 -180 2 -56 -10 -93 -50 -146
-160 -25 -51 -44 -78 -54 -77 -11 2 -14 12 -12 35 3 27 0 32 -18 32 -37 0 -90
-28 -101 -54 -12 -25 -13 -25 -153 -29 -113 -2 -99 -3 72 -5 116 -1 212 -6
212 -10 0 -5 -11 -19 -25 -32 -14 -13 -25 -28 -25 -33 0 -5 -9 -20 -20 -34
-31 -39 -40 -89 -41 -224 -1 -148 8 -179 51 -179 28 0 30 -2 30 -39 l0 -39
-177 -7 c-207 -9 -470 0 -489 16 -11 9 -14 61 -14 247 l0 236 41 36 c36 31 39
37 27 53 -13 18 -15 17 -41 -3 l-27 -21 0 180 c0 159 -2 181 -16 181 -14 0
-15 -20 -12 -165 3 -153 -3 -200 -18 -141 -7 31 -31 52 -67 61 -27 7 -27 7
-29 -46 -1 -30 -2 -71 -1 -91 2 -36 0 -38 -28 -38 l-29 0 -2 73 c0 39 0 80 1
91 1 16 -4 18 -31 12 -18 -3 -36 -10 -41 -15 -19 -19 -47 -148 -47 -213 0 -60
2 -68 19 -68 15 0 19 11 25 68 8 83 26 118 26 52 0 -25 -4 -61 -10 -80 -12
-41 -2 -53 34 -44 24 6 26 11 26 55 0 48 1 49 30 49 29 0 30 -2 30 -43 0 -46
13 -67 42 -67 16 0 17 8 12 93 l-6 92 30 -30 31 -30 3 -253 c2 -196 0 -252 -9
-252 -7 0 -13 4 -13 8 0 9 -47 35 -65 36 -6 1 -11 51 -12 124 -1 93 -5 129
-17 147 -9 14 -16 38 -16 55 0 21 -4 30 -12 28 -7 -3 -13 -11 -13 -19 0 -8 -5
-27 -12 -44 -17 -45 -26 -69 -29 -80 -2 -5 -10 -30 -19 -55 -9 -25 -20 -63
-24 -85 -6 -33 -11 -40 -29 -38 -12 2 -22 -1 -22 -6 0 -5 -3 -16 -6 -25 -4
-10 -1 -16 8 -16 7 0 18 -8 24 -18 10 -16 3 -17 -122 -14 -91 3 -134 0 -134
-7 0 -8 406 -11 1400 -11 952 0 1400 3 1400 10 0 7 -101 10 -305 8 -168 -2
-305 0 -305 3 0 4 7 9 15 13 9 3 15 18 15 38 l0 33 -79 -3 c-61 -3 -82 0 -94
12 -20 20 -137 23 -137 4 0 -8 -3 -9 -8 -3 -10 14 -208 20 -216 6 -9 -14 -53
-14 -61 -1 -3 6 -50 10 -106 10 -76 0 -104 -4 -115 -15 -11 -11 -37 -15 -86
-15 -68 0 -72 1 -104 36 l-34 35 0 114 c0 63 4 116 9 119 4 3 25 -4 47 -14 65
-34 124 -24 124 20 0 36 -18 54 -74 75 -52 20 -63 45 -32 74 21 20 22 20 34 1
7 -12 24 -20 40 -21 24 0 25 -1 7 -9 -17 -6 -14 -9 19 -15 28 -6 40 -4 47 6 5
8 9 10 9 4 0 -16 712 -13 718 3 2 6 10 12 18 12 8 0 17 7 20 15 8 20 21 19 34
-4 15 -29 2 -50 -40 -61 -48 -13 -76 -37 -84 -73 -5 -22 -2 -29 18 -38 47 -22
147 17 165 64 l9 22 6 -25 c3 -14 7 -36 9 -50 3 -14 5 -3 6 23 1 40 -6 60 -35
108 -20 32 -43 64 -50 70 -27 22 -13 29 56 29 57 0 70 3 70 15 0 20 -48 65
-69 65 -9 0 -26 3 -38 6 -21 6 -23 3 -23 -30 0 -59 -22 -42 -73 57 -26 50 -64
109 -84 131 -31 34 -39 38 -70 33 -31 -5 -35 -3 -45 24 -6 17 -21 34 -34 39
-18 7 -24 17 -24 40 0 16 4 30 9 30 4 0 20 11 35 25 37 34 34 68 -9 102 -23
18 -41 45 -51 76 -15 45 -35 65 -61 61 -7 -1 -17 -2 -23 -3 -5 0 -14 -10 -20
-21 -12 -23 4 -65 22 -54 7 5 7 8 -1 13 -6 4 -3 11 9 19 18 11 20 10 20 -10 0
-16 3 -19 8 -10 5 7 16 10 25 6 15 -5 15 -8 1 -29 -14 -22 -13 -24 20 -50 42
-32 44 -50 12 -125 -17 -39 -31 -57 -50 -63 -14 -5 -26 -13 -26 -19 0 -5 -10
-8 -22 -6 -17 2 -27 14 -36 46 -11 34 -18 42 -38 42 l-24 0 -2 228 -3 227 -91
3 -92 3 -4 -31z m433 -560 l24 -19 -37 -1 c-41 0 -41 0 -32 24 8 21 17 20 45
-4z m-1406 -285 c52 -46 55 -72 4 -42 -17 9 -39 17 -50 17 -15 0 -19 7 -19 35
0 19 3 35 8 35 4 -1 29 -21 57 -45z m-195 30 c0 -15 -31 -77 -36 -72 -8 8 16
77 27 77 5 0 9 -2 9 -5z m22 -219 c-10 -19 -17 16 -13 56 l5 43 6 -45 c3 -25
4 -49 2 -54z m927 45 c14 -26 -8 -54 -39 -49 -28 3 -38 31 -20 53 17 21 47 19
59 -4z m980 0 c14 -26 -8 -54 -40 -49 -16 2 -27 -3 -34 -17 -13 -24 -41 -31
-61 -14 -35 29 7 85 46 61 17 -11 20 -10 20 7 0 33 53 43 69 12z m-911 -23
c28 -28 1 -75 -37 -63 -25 8 -34 31 -21 56 12 21 40 25 58 7z m-931 -238 c5
-145 11 -193 23 -185 5 3 11 1 14 -4 4 -6 -16 -7 -51 -4 -41 4 -65 13 -80 28
l-22 21 44 139 c25 76 45 147 46 159 0 19 1 19 11 -4 6 -14 12 -81 15 -150z
m1251 -131 c2 -9 -4 -24 -13 -33 -13 -13 -39 -16 -134 -16 l-117 0 4 35 4 36
127 -3 c107 -3 126 -5 129 -19z m412 -7 c0 -15 5 -33 12 -40 9 -9 -34 -12
-195 -12 l-207 0 0 40 0 40 195 0 195 0 0 -28z m-710 -1 c0 -18 -30 -32 -62
-28 -31 4 -31 5 -10 12 18 6 20 10 10 16 -8 6 0 9 25 9 20 0 37 -4 37 -9z
m830 1 c0 -26 -61 -44 -75 -22 -3 6 2 10 12 10 15 0 16 2 3 10 -11 7 -5 10 23
10 20 0 37 -4 37 -8z"/>
<path d="M323 1951 c-8 -12 -7 -21 1 -33 11 -15 13 -15 23 1 8 12 7 21 -1 33
-11 15 -13 15 -23 -1z"/>
<path d="M2220 1778 c0 -9 -9 -23 -20 -31 -19 -13 -19 -13 0 -30 11 -9 20 -24
20 -33 0 -11 9 -4 23 17 17 26 20 36 11 44 -6 6 -16 19 -22 30 -10 17 -11 17
-12 3z"/>
<path d="M871 1733 c2 -45 2 -46 8 -13 l6 35 26 -37 c14 -21 29 -35 32 -31 11
10 8 93 -2 93 -6 0 -11 -15 -13 -32 l-3 -33 -20 33 c-10 17 -23 32 -27 32 -4
0 -7 -21 -7 -47z"/>
<path d="M973 1764 c-7 -18 20 -44 44 -44 7 0 13 -4 13 -9 0 -14 -32 -23 -44
-11 -16 16 -30 12 -16 -5 16 -19 44 -19 60 0 15 17 6 33 -26 45 -29 11 -32 30
-4 30 11 0 20 -4 20 -10 0 -5 5 -10 11 -10 8 0 8 5 -1 15 -17 20 -49 19 -57
-1z"/>
<path d="M1062 1738 c-2 -52 7 -63 44 -54 22 6 24 11 22 54 l-1 47 -4 -42 c-2
-24 -8 -44 -14 -44 -30 -5 -34 -1 -40 41 l-6 45 -1 -47z"/>
<path d="M1150 1730 c0 -27 5 -50 10 -50 6 0 10 11 10 25 0 32 15 32 36 0 19
-29 31 -27 15 3 -7 13 -7 22 1 30 20 20 1 42 -37 42 l-35 0 0 -50z m63 25 c-3
-13 -53 -20 -53 -7 0 15 13 23 35 20 11 -2 19 -7 18 -13z"/>
<path d="M1257 1733 c-9 -25 -15 -48 -12 -51 2 -3 7 3 11 12 8 20 54 22 54 1
0 -8 4 -15 9 -15 6 0 1 23 -11 50 -11 28 -24 50 -27 50 -4 0 -14 -21 -24 -47z"/>
<path d="M1342 1730 c1 -46 2 -48 5 -15 l4 40 20 -25 c10 -14 19 -20 19 -15 0
6 -11 24 -25 40 l-24 30 1 -55z"/>
<path d="M1398 1738 c-3 -24 -1 -47 3 -52 5 -6 9 13 9 42 0 63 -6 68 -12 10z"/>
<path d="M1442 1768 c-16 -16 -15 -50 1 -73 17 -22 67 -14 67 11 0 14 -2 14
-15 0 -29 -29 -65 7 -45 45 12 22 30 24 49 7 11 -11 13 -10 9 2 -6 19 -49 25
-66 8z"/>
<path d="M1530 1730 l0 -50 35 0 c19 0 35 5 35 10 0 6 -13 10 -30 10 -42 0
-40 27 3 33 l32 4 -33 1 c-41 2 -39 24 4 33 27 6 27 7 -8 8 l-38 1 0 -50z"/>
<path d="M482 1750 c-8 -14 -8 -21 2 -29 20 -17 38 9 22 31 -11 15 -13 15 -24
-2z"/>
<path d="M2516 1751 c-4 -6 -25 -16 -46 -22 l-40 -12 0 -136 c0 -122 2 -142
23 -181 12 -24 39 -58 60 -74 36 -29 45 -31 116 -31 88 0 128 19 172 83 22 33
24 46 27 186 l3 151 -50 22 c-47 20 -51 20 -95 5 -45 -17 -58 -15 -147 14 -9
3 -20 1 -23 -5z m87 -45 c30 -8 47 -7 80 5 40 14 46 14 86 -4 l43 -19 -4 -121
c-5 -134 -15 -166 -68 -211 -77 -65 -184 -51 -247 31 -27 35 -28 42 -31 169
l-4 133 39 20 c21 11 45 17 53 14 8 -3 32 -11 53 -17z"/>
<path d="M2656 1550 c-21 -33 -41 -60 -44 -60 -3 0 -20 13 -37 29 l-30 29 -18
-23 c-17 -24 -17 -24 34 -59 l52 -35 36 29 c20 15 54 44 76 63 l40 36 -27 25
c-15 14 -31 26 -35 26 -4 0 -25 -27 -47 -60z"/>
<path d="M1870 1686 c-5 -13 -14 -27 -19 -31 -6 -3 -11 -32 -11 -63 0 -40 3
-53 10 -42 7 12 11 8 16 -17 11 -55 34 -40 56 37 8 30 19 63 23 73 10 24 -12
22 -25 -3 -6 -11 -16 -20 -23 -20 -7 0 -6 4 3 10 13 8 12 10 -3 10 -13 0 -17
7 -15 28 2 15 10 30 18 34 12 5 12 7 -3 7 -10 1 -22 -10 -27 -23z"/>
<path d="M2080 1585 c0 -28 24 -67 51 -81 47 -24 88 -15 70 15 -5 8 -22 11
-42 9 -30 -3 -34 0 -35 22 0 14 -1 31 -2 38 -3 17 -42 15 -42 -3z"/>
<path d="M2175 1580 c-10 -11 -15 -23 -12 -27 12 -11 72 12 75 30 5 24 -40 22
-63 -3z"/>
<path d="M1075 1530 c4 -6 110 -10 286 -10 179 0 279 4 279 10 0 6 -102 10
-286 10 -187 0 -283 -3 -279 -10z"/>
<path d="M2020 1522 c0 -37 93 -101 127 -88 7 3 13 12 13 21 0 11 -11 15 -45
15 -40 0 -45 2 -45 23 0 25 -17 47 -37 47 -7 0 -13 -8 -13 -18z"/>
<path d="M1090 1490 c-10 -6 81 -10 268 -10 181 0 282 4 282 10 0 13 -529 13
-550 0z"/>
<path d="M1278 1450 l-213 -6 290 0 c160 -1 279 0 265 2 -61 8 -142 9 -342 4z"/>
<path d="M1006 1435 c-4 -11 -12 -31 -17 -44 l-10 -24 -14 26 c-25 48 -26 49
-41 36 -9 -7 -29 -9 -53 -5 -28 4 -42 2 -51 -9 -8 -10 -9 -15 -2 -15 6 0 13 3
15 8 6 9 99 8 115 -2 7 -4 12 -16 12 -27 0 -17 -7 -19 -70 -19 -57 0 -70 3
-70 16 0 9 -5 12 -12 8 -6 -4 -17 1 -25 11 -11 16 -13 16 -13 3 0 -24 46 -75
78 -85 38 -13 82 -7 112 15 30 22 63 85 57 109 -3 16 -5 16 -11 -2z"/>
<path d="M1182 1403 c65 -2 171 -2 236 0 64 1 11 3 -118 3 -129 0 -182 -2
-118 -3z"/>
<path d="M442 1357 c-23 -27 -24 -63 -2 -88 17 -19 19 -20 11 -3 -11 23 0 46
22 50 8 1 24 5 36 9 12 3 21 2 21 -3 0 -6 -5 -12 -12 -14 -6 -2 -8 -10 -4 -17
6 -9 12 -5 22 15 13 24 12 29 -2 46 -20 21 -76 24 -92 5z"/>
<path d="M1070 1360 c0 -13 370 -13 390 0 10 6 -53 10 -187 10 -129 0 -203 -4
-203 -10z"/>
<path d="M2806 1265 c-3 -9 -2 -23 2 -31 7 -13 10 -13 22 1 11 13 11 18 -2 31
-14 14 -16 14 -22 -1z"/>
<path d="M261 1258 c-1 -9 -11 -24 -23 -32 l-22 -16 21 -15 c12 -8 24 -25 26
-38 l4 -22 2 22 c0 12 10 28 21 36 19 13 19 15 4 28 -9 7 -20 22 -24 34 -7 16
-9 17 -9 3z"/>
<path d="M940 1249 c0 -9 59 -10 227 -5 125 4 229 9 232 11 2 3 -100 5 -227 5
-168 0 -232 -3 -232 -11z"/>
<path d="M1826 1165 c-28 -37 -29 -52 -2 -42 8 3 16 18 18 34 l4 28 11 -25
c13 -27 16 -7 4 24 -6 16 -10 14 -35 -19z"/>
<path d="M728 1184 c-17 -26 12 -81 35 -67 5 3 15 -5 24 -16 22 -33 77 -26 81
10 4 35 -20 53 -55 43 -16 -4 -31 -8 -35 -8 -3 -1 -10 -4 -14 -8 -15 -15 -23
-7 -26 25 -2 17 -6 27 -10 21z m107 -54 c4 6 11 8 16 4 6 -4 4 -13 -6 -24 -14
-16 -21 -17 -36 -7 -26 16 -26 41 0 27 14 -7 22 -7 26 0z"/>
<path d="M2755 1181 c11 -4 23 -21 26 -37 6 -27 7 -27 8 9 1 34 -1 37 -26 36
-24 0 -25 -1 -8 -8z"/>
<path d="M1694 1165 c-12 -8 -23 -12 -26 -10 -3 3 -13 -4 -23 -15 -18 -20 -17
-20 7 -20 16 0 29 8 36 23 l11 22 0 -22 c1 -35 21 -27 21 7 0 35 1 34 -26 15z"/>
<path d="M943 1098 c-2 -5 46 -8 108 -8 62 0 110 2 107 5 -9 9 -209 11 -215 3z"/>
<path d="M780 955 l0 -75 190 0 190 0 0 75 0 75 -190 0 -190 0 0 -75z m350 0
l0 -46 -157 3 -158 3 -1 43 -1 42 159 0 158 0 0 -45z"/>
<path d="M2421 1011 c-23 -15 -23 -43 0 -36 20 7 27 -9 9 -20 -17 -11 -11 -56
13 -94 21 -34 22 -35 25 -13 2 16 -4 29 -17 39 -28 19 -27 49 3 68 23 15 27
15 50 0 29 -19 34 -15 10 9 -12 13 -13 16 -2 16 29 0 63 -53 62 -98 0 -37 -5
-49 -35 -75 -20 -18 -26 -27 -14 -22 11 4 30 10 41 12 28 6 44 43 44 99 0 36
-6 51 -33 81 -29 31 -41 37 -88 40 -30 2 -60 0 -68 -6z"/>
<path d="M2480 922 c0 -5 11 -18 25 -30 32 -28 31 -43 -1 -71 -19 -16 -29 -20
-37 -12 -6 6 -17 11 -24 11 -11 0 -9 -6 4 -25 10 -13 21 -25 24 -25 15 -1 69
65 69 85 0 34 -10 55 -26 55 -8 0 -14 5 -14 10 0 6 -4 10 -10 10 -5 0 -10 -4
-10 -8z"/>
<path d="M225 900 c-3 -6 -3 -19 0 -30 5 -16 2 -20 -18 -20 -29 0 -54 -24 -37
-35 31 -19 90 34 90 81 0 16 -26 19 -35 4z"/>
<path d="M132 883 c2 -12 14 -19 36 -21 35 -4 43 12 13 28 -30 16 -53 12 -49
-7z"/>
<path d="M390 876 c0 -13 -3 -39 -6 -57 -5 -32 -5 -33 10 -15 18 22 22 96 6
96 -5 0 -10 -11 -10 -24z"/>
<path d="M539 823 c0 -43 -1 -107 -3 -143 -2 -63 7 -95 25 -84 10 6 12 225 3
273 -12 56 -24 32 -25 -46z"/>
<path d="M2804 883 c-8 -14 -8 -21 1 -30 20 -19 39 8 22 30 -11 16 -13 16 -23
0z"/>
<path d="M1427 856 c-15 -22 -15 -25 0 -30 9 -4 18 -4 21 -1 3 3 1 5 -5 5 -17
0 -3 38 16 43 15 4 15 5 0 6 -9 0 -24 -10 -32 -23z"/>
<path d="M2169 863 l24 -16 -23 -19 c-26 -21 -22 -23 14 -7 23 11 24 13 9 35
-8 13 -23 24 -31 24 -12 0 -10 -5 7 -17z"/>
<path d="M286 858 c-3 -7 -6 -22 -9 -33 -2 -11 -9 -19 -16 -17 -22 5 -51 -9
-51 -24 0 -8 9 -14 21 -14 25 0 93 64 87 82 -6 17 -27 22 -32 6z"/>
<path d="M780 710 c0 -100 4 -160 10 -160 6 0 10 60 10 160 0 100 -4 160 -10
160 -6 0 -10 -60 -10 -160z"/>
<path d="M1148 800 c-4 -41 -4 -115 1 -165 l8 -90 2 102 1 102 38 4 37 4 -37
1 -37 2 -3 58 -3 57 -7 -75z"/>
<path d="M2388 761 c-6 -94 -9 -107 -30 -123 l-23 -18 22 0 c30 0 45 56 41
163 l-3 82 -7 -104z"/>
<path d="M810 820 c0 -29 2 -30 45 -30 43 0 45 1 45 30 0 29 -2 30 -45 30 -43
0 -45 -1 -45 -30z m44 8 c5 -10 7 -10 12 0 9 19 24 14 24 -8 0 -15 -7 -20 -28
-20 -34 0 -43 7 -35 26 6 17 19 18 27 2z"/>
<path d="M930 820 c0 -29 2 -30 45 -30 44 0 45 0 44 33 -2 30 -2 30 -6 5 -4
-24 -9 -28 -39 -28 -28 0 -34 4 -34 21 0 17 4 20 24 15 14 -3 28 -2 31 4 4 6
-8 10 -29 10 -33 0 -36 -2 -36 -30z"/>
<path d="M1040 820 c0 -29 2 -30 45 -30 43 0 45 1 45 30 0 29 -2 30 -45 30
-43 0 -45 -1 -45 -30z"/>
<path d="M1633 833 c71 -2 183 -2 250 0 67 1 10 3 -128 3 -137 0 -192 -2 -122
-3z"/>
<path d="M2038 833 c18 -2 45 -2 60 0 15 2 0 4 -33 4 -33 0 -45 -2 -27 -4z"/>
<path d="M333 807 c-6 -6 -13 -20 -16 -29 -4 -11 -17 -18 -30 -18 -25 0 -55
-25 -44 -36 18 -18 117 43 117 72 0 19 -16 26 -27 11z"/>
<path d="M1653 803 c64 -2 170 -2 235 0 64 1 11 3 -118 3 -129 0 -182 -2 -117
-3z"/>
<path d="M2060 743 l-55 -58 58 55 c31 30 57 56 57 57 0 8 -10 -1 -60 -54z"/>
<path d="M2668 788 c-22 -19 -33 -52 -13 -44 8 3 23 9 32 13 11 4 9 -1 -6 -16
-18 -18 -22 -30 -17 -52 6 -31 35 -78 49 -79 14 0 7 41 -8 46 -9 4 -20 15 -26
26 -9 17 -6 25 15 45 18 17 31 22 39 15 7 -5 20 -12 30 -15 15 -6 16 -4 6 16
l-12 22 24 -20 c36 -30 39 -36 39 -82 0 -42 -28 -84 -54 -83 -6 1 0 10 13 20
28 24 10 27 -25 4 -14 -10 -23 -22 -20 -29 2 -6 -2 -12 -10 -12 -8 0 -12 3 -9
5 8 9 -16 32 -33 32 -13 0 -10 -7 10 -27 25 -24 30 -26 63 -16 19 6 33 7 29 2
-11 -19 18 -8 41 15 53 53 41 157 -23 201 -40 28 -107 34 -134 13z"/>
<path d="M366 765 c-19 -48 -31 -66 -45 -64 -35 3 -51 -2 -51 -15 0 -27 19
-27 60 -1 45 28 54 42 48 77 -4 22 -5 22 -12 3z"/>
<path d="M1668 773 c61 -2 163 -2 225 0 61 1 11 3 -113 3 -124 0 -174 -2 -112
-3z"/>
<path d="M810 740 c0 -16 5 -30 10 -30 6 0 10 14 10 30 0 17 -4 30 -10 30 -5
0 -10 -13 -10 -30z"/>
<path d="M2557 752 c6 -23 37 -22 60 1 16 16 15 17 -24 17 -35 0 -40 -3 -36
-18z"/>
<path d="M1698 743 c56 -2 148 -2 205 0 56 1 10 3 -103 3 -113 0 -159 -2 -102
-3z"/>
<path d="M1718 713 c50 -2 134 -2 185 0 50 1 9 3 -93 3 -102 0 -143 -2 -92 -3z"/>
<path d="M2730 707 c0 -8 14 -30 31 -48 29 -31 31 -32 24 -9 -10 32 -55 79
-55 57z"/>
<path d="M810 660 c0 -29 2 -30 45 -30 43 0 45 1 45 30 0 29 -2 30 -45 30 -43
0 -45 -1 -45 -30z m80 0 c0 -13 -8 -17 -30 -16 -17 1 -30 5 -30 9 0 4 0 11 0
15 0 5 14 9 30 9 22 0 30 -5 30 -17z"/>
<path d="M930 660 c0 -29 2 -30 45 -30 44 0 45 0 44 33 -2 27 -3 28 -6 6 -3
-21 -9 -25 -38 -26 -28 -1 -35 3 -35 17 0 14 6 18 24 14 14 -2 28 0 31 6 4 6
-8 10 -29 10 -33 0 -36 -2 -36 -30z"/>
<path d="M1040 619 l0 -70 47 3 48 3 1 68 1 67 -49 0 -48 0 0 -71z m63 31 c-3
-12 0 -20 7 -20 10 0 10 -3 0 -15 -6 -8 -9 -19 -5 -25 3 -5 1 -10 -4 -10 -6 0
-11 6 -11 14 0 7 -9 16 -21 19 -12 3 -18 10 -15 16 4 6 13 8 21 4 10 -3 15 2
15 16 0 12 4 21 9 21 5 0 7 -9 4 -20z"/>
<path d="M1650 683 c0 -5 72 -8 160 -8 88 0 160 3 160 8 0 4 -72 7 -160 7 -88
0 -160 -3 -160 -7z"/>
<path d="M2470 680 l-55 -7 58 -1 c32 -1 57 2 57 8 0 6 -1 9 -2 8 -2 -1 -28
-4 -58 -8z"/>
<path d="M346 673 c-9 -10 -7 -55 3 -49 12 8 21 45 11 51 -4 2 -10 2 -14 -2z"/>
<path d="M2421 626 c2 -2 29 -6 59 -9 34 -3 47 -2 35 3 -19 8 -103 14 -94 6z"/>
<path d="M810 583 c0 -27 2 -28 47 -25 43 3 48 6 48 28 0 22 -4 24 -47 24 -46
0 -48 -1 -48 -27z m80 3 c0 -9 -10 -13 -32 -11 -41 4 -40 3 -33 15 10 16 65
12 65 -4z"/>
<path d="M930 585 c0 -22 4 -25 36 -25 21 0 33 4 29 10 -3 6 -17 7 -31 4 -18
-5 -24 -2 -24 10 0 12 9 16 34 16 28 0 35 -4 39 -22 4 -20 4 -19 6 5 1 26 -1
27 -44 27 -41 0 -45 -2 -45 -25z"/>
<path d="M2398 573 c17 -2 47 -2 65 0 17 2 3 4 -33 4 -36 0 -50 -2 -32 -4z"/>
<path d="M2237 433 c-14 -14 -6 -38 16 -49 20 -9 23 -7 22 10 0 36 -21 56 -38
39z"/>
<path d="M500 360 c0 -6 33 -10 80 -10 47 0 80 4 80 10 0 6 -33 10 -80 10 -47
0 -80 -4 -80 -10z"/>
<path d="M910 360 c0 -6 122 -10 345 -10 223 0 345 4 345 10 0 6 -122 10 -345
10 -223 0 -345 -4 -345 -10z"/>
<path d="M2420 360 c0 -6 32 -10 75 -10 43 0 75 4 75 10 0 6 -32 10 -75 10
-43 0 -75 -4 -75 -10z"/>
<path d="M0 180 c0 -13 7 -20 20 -20 22 0 25 -12 9 -41 -8 -15 -5 -27 11 -54
26 -42 57 -52 98 -31 25 13 64 16 188 16 185 0 224 9 224 53 0 15 -4 26 -9 23
-4 -3 -16 3 -26 14 -18 20 -13 20 1155 20 1049 0 1334 -4 1080 -15 -80 -4
-110 -15 -110 -40 0 -31 32 -39 162 -40 100 -2 133 1 144 12 18 18 18 24 -1
49 -22 29 -18 34 20 34 28 0 35 4 35 20 0 20 -7 20 -1500 20 -1493 0 -1500 0
-1500 -20z m443 -27 c-23 -2 -64 -2 -90 0 -26 2 -7 3 42 3 50 0 71 -1 48 -3z
m-299 -28 c15 -22 15 -28 2 -46 -15 -22 -30 -11 -20 15 8 20 -23 33 -39 16 -9
-9 -7 -15 11 -27 27 -19 28 -33 2 -33 -29 0 -47 42 -32 75 15 34 54 33 76 0z
m55 -17 c1 6 8 12 16 12 18 0 20 -20 3 -21 -10 0 -10 -2 0 -6 6 -2 9 -9 6 -14
-3 -6 -11 -5 -20 2 -11 9 -14 8 -15 -2 -1 -8 -5 0 -8 16 -9 37 0 59 10 25 4
-14 7 -19 8 -12z m309 -13 c0 -31 -6 -32 -18 -2 -6 15 -9 17 -9 6 -1 -20 -28
-33 -37 -18 -4 7 -10 6 -18 0 -15 -13 -26 -4 -26 21 0 13 7 17 25 16 14 -1 25
-8 25 -15 0 -8 8 -5 20 7 25 25 38 19 38 -15z m2180 5 c-2 8 1 17 6 20 5 3 10
-5 11 -17 1 -18 -4 -23 -22 -23 -19 0 -23 5 -23 28 l1 27 15 -25 c8 -14 13
-18 12 -10z m56 18 c-5 -8 -3 -8 7 -2 8 5 24 9 37 9 17 1 22 -4 21 -25 -1 -17
-3 -19 -6 -7 -2 9 -9 15 -14 11 -5 -3 -7 -10 -4 -15 4 -5 -8 -9 -24 -9 -26 0
-31 4 -31 25 0 14 5 25 11 25 5 0 7 -5 3 -12z m115 0 c11 -11 12 -10 6 1 -5 9
-3 12 6 9 8 -3 14 -10 14 -15 0 -6 3 -15 7 -19 4 -3 6 3 3 15 -2 11 0 21 6 21
5 0 9 -6 10 -12 0 -10 2 -10 6 0 2 6 9 12 14 12 6 0 8 -4 4 -9 -3 -5 -1 -12 5
-16 12 -7 4 -25 -11 -25 -6 0 -7 6 -3 13 6 10 4 10 -7 0 -19 -18 -69 -17 -69
2 0 7 -8 19 -17 24 -15 9 -15 10 -2 11 8 0 21 -6 28 -12z m-2589 -10 c0 -10 2
-10 8 -1 9 14 64 12 74 -2 5 -6 8 -5 8 3 0 6 7 12 15 12 18 0 20 -20 3 -21
-10 0 -10 -2 0 -6 6 -2 9 -9 6 -14 -4 -6 -11 -6 -19 1 -9 7 -15 8 -19 1 -7
-11 -37 -3 -48 13 -5 7 -8 3 -8 -9 0 -15 -2 -17 -9 -6 -6 9 -10 10 -16 2 -10
-17 -36 6 -28 25 6 17 33 19 33 2z"/>
<path d="M592 134 c-11 -7 -22 -10 -26 -7 -3 3 -6 -7 -6 -23 0 -35 -9 -32 163
-39 134 -6 167 1 167 34 0 29 -20 37 -95 39 -89 2 -105 -3 -105 -34 0 -23 -3
-25 -45 -23 -39 2 -45 6 -45 25 0 17 5 22 20 21 11 -1 20 -4 20 -7 0 -3 9 -6
20 -6 31 0 18 20 -18 27 -20 4 -38 1 -50 -7z m138 -26 c6 -16 9 -18 9 -7 1 17
51 34 51 17 0 -4 14 -7 30 -6 17 1 30 6 30 11 0 5 7 4 15 -3 8 -7 15 -20 15
-29 0 -14 -2 -14 -10 -1 -8 12 -10 12 -10 1 0 -9 -8 -12 -25 -9 -13 3 -26 1
-27 -4 -5 -15 -38 3 -39 21 -1 14 -2 14 -6 -1 -3 -12 -13 -16 -34 -15 -20 1
-28 6 -24 15 3 8 5 18 5 23 0 16 10 9 20 -13z"/>
</g>
</svg>
